<?xml version="1.0" encoding="UTF-8"?>
<svg id="Layer_1" data-name="Layer 1" xmlns="http://www.w3.org/2000/svg" viewBox="0 0 15.06 10.07">
  <defs>
    <style>
      .cls-1 {
        fill: #fff;
      }

      .cls-2 {
        fill: #00e77c;
      }

      .cls-3 {
        fill: #8860f4;
      }

      .cls-4 {
        fill: #0f0f0f;
      }
    </style>
  </defs>
  <path class="cls-3" d="M11.28,4.8c.2.25.2.61,0,.86-.54.63-1.73,1.74-3.52,1.74-.17,0-2.17-.04-3.53-1.73-.2-.25-.2-.61,0-.86.54-.63,1.73-1.74,3.52-1.74.17,0,2.17.04,3.53,1.73Z"/>
  <path class="cls-1" d="M7.75,3.79c.08,0,.51,0,1.08.11.74.13,1.73.43,2.5,1.09.15.13.14.37-.01.49-.41.33-1.25.89-2.51,1.11-.33.06-.68.09-1.06.09-.08,0-.51,0-1.08-.11-.74-.13-1.73-.43-2.5-1.09-.15-.13-.14-.37.01-.49.41-.33,1.25-.89,2.51-1.11.33-.06.68-.09,1.06-.09Z"/>
  <path class="cls-2" d="M7.75,3.79c.08,0,.51,0,1.08.11.39.31.64.8.64,1.34,0,.55-.26,1.04-.66,1.36-.33.06-.68.09-1.06.09-.08,0-.51,0-1.08-.11-.39-.31-.64-.8-.64-1.34s.26-1.04.66-1.35c.33-.06.68-.09,1.06-.09Z"/>
  <path class="cls-4" d="M8.49,5.23c0,.41-.33.74-.74.74s-.74-.33-.74-.74.33-.74.74-.74.74.33.74.74Z"/>
</svg>